<?xml version="1.0" encoding="iso-8859-1"?>
<!-- Uploaded to: SVG Repo, www.svgrepo.com, Generator: SVG Repo Mixer Tools -->
<svg height="800px" width="800px" version="1.1" id="Layer_1" xmlns="http://www.w3.org/2000/svg" xmlns:xlink="http://www.w3.org/1999/xlink" 
	 viewBox="0 0 512 512" xml:space="preserve">
<path style="fill:#E77763;" d="M475.432,212.728c-5.921-283.638-432.944-283.638-438.865,0c-0.045,2.157-0.068,4.32-0.068,6.488
	C36.5,357.966,129.177,475.055,256,512c126.823-36.945,219.5-154.034,219.5-292.783C475.5,217.048,475.478,214.885,475.432,212.728z
	"/>
<circle style="fill:#F0E9DD;" cx="256.002" cy="215.921" r="151.145"/>
<path style="fill:#E5DED3;" d="M146.981,215.922c0-76.326,56.579-139.427,130.082-149.676c-6.884-0.96-13.914-1.468-21.063-1.468
	c-83.475,0-151.145,67.67-151.145,151.145S172.525,367.067,256,367.067c7.149,0,14.179-0.509,21.063-1.469
	C203.561,355.349,146.981,292.248,146.981,215.922z"/>
<g>
	<path style="fill:#E8BB51;" d="M224.65,275.468c-32.834,0-59.545-26.712-59.545-59.545s26.711-59.545,59.545-59.545
		c3.456,0,6.921,0.299,10.3,0.889c4.674,0.816,7.803,5.266,6.987,9.939c-0.816,4.674-5.258,7.802-9.94,6.986
		c-2.408-0.419-4.879-0.632-7.347-0.632c-23.36,0-42.363,19.005-42.363,42.363s19.005,42.363,42.363,42.363
		s42.363-19.004,42.363-42.363c0-5.724-1.119-11.271-3.324-16.487c-1.849-4.37,0.196-9.411,4.565-11.26
		c4.369-1.846,9.411,0.196,11.259,4.566c3.108,7.346,4.683,15.144,4.683,23.181C284.195,248.756,257.484,275.468,224.65,275.468z"/>
	<path style="fill:#E8BB51;" d="M287.351,275.468c-4.746,0-8.591-3.846-8.591-8.591s3.845-8.591,8.591-8.591
		c23.36,0,42.363-19.004,42.363-42.363s-19.005-42.363-42.363-42.363c-23.361,0-42.364,19.005-42.364,42.363
		c0,2.879,0.29,5.754,0.861,8.545c0.952,4.648-2.045,9.188-6.694,10.14c-4.648,0.95-9.188-2.046-10.14-6.693
		c-0.803-3.923-1.211-7.958-1.211-11.992c0-32.834,26.712-59.545,59.546-59.545s59.545,26.712,59.545,59.545
		S320.185,275.468,287.351,275.468z"/>
</g>
<path style="fill:#51C4BC;" d="M287.351,167.832c-4.746,0-8.591-3.846-8.591-8.591v-11.982c0-4.745,3.845-8.591,8.591-8.591
	c4.746,0,8.591,3.846,8.591,8.591v11.982C295.942,163.985,292.097,167.832,287.351,167.832z"/>
</svg>